<svg width="240" height="94" viewBox="0 0 240 94" fill="none" xmlns="http://www.w3.org/2000/svg">
<g clip-path="url(#clip0_1778_10245)">
<path d="M191.576 55.6248V38.7958C191.576 38.7958 193.83 43.1714 196.669 48.4444C196.989 49.027 197.47 49.5059 198.055 49.8241C198.64 50.1423 199.305 50.2865 199.97 50.2395C200.635 50.2851 201.299 50.1403 201.884 49.8223C202.469 49.5042 202.95 49.0261 203.271 48.4444C206.065 43.1714 208.364 38.7958 208.364 38.7958V55.6248H215.912C215.912 52.618 215.912 38.0666 215.912 25.7029C215.98 24.9056 215.801 24.1067 215.398 23.4143C214.995 22.722 214.388 22.1697 213.659 21.8323C211.834 21.0133 210.02 21.8323 208.882 23.661L199.948 38.2461C199.508 37.5393 194.213 28.9453 191.013 23.661C189.886 21.7986 188.05 21.0133 186.236 21.8323C185.507 22.1697 184.901 22.722 184.498 23.4143C184.094 24.1067 183.915 24.9056 183.983 25.7029C183.983 38.0441 183.983 52.6292 183.983 55.6248H191.576Z" fill="#E10000"/>
<path d="M160.064 50.0934H171.725L174.091 55.6357H182.304C181.718 54.166 169.088 23.874 169.088 23.874C168.874 23.1819 168.446 22.5745 167.866 22.1376C167.285 21.7007 166.582 21.4565 165.855 21.4394C165.141 21.4725 164.455 21.7241 163.891 22.1598C163.326 22.5956 162.911 23.1942 162.7 23.874C162.7 23.874 150.059 54.166 149.518 55.6357H157.743L160.064 50.0934ZM165.889 34.8128L168.919 42.4531H162.858L165.889 34.8128Z" fill="#E10000"/>
<path d="M137.733 56.4098C139.308 56.4581 140.875 56.1688 142.328 55.5615C143.781 54.9542 145.086 54.043 146.154 52.8897C147.223 51.7364 148.03 50.368 148.521 48.877C149.012 47.3861 149.175 45.8075 149 44.2481C148.606 39.7604 146.499 37.5166 143.998 36.1029C141.744 34.8688 141.034 34.4088 139.097 33.343C137.654 32.5464 136.595 31.6601 136.618 30.6616C136.618 28.2719 139.063 28.5075 140.674 29.0684C142.285 29.6294 145.012 30.9196 145.012 30.9196L147.986 23.5934C146.558 22.891 145.091 22.2692 143.592 21.731C142.551 21.341 141.47 21.0627 140.37 20.9008C129.666 19.5882 125.385 31.5255 131.064 37.3146C132.26 38.5721 133.652 39.6291 135.187 40.4448C136.483 41.174 137.947 41.9706 137.947 41.9706C139.975 42.9691 141.034 44.0574 141.001 45.6169C140.991 45.9646 140.911 46.3069 140.767 46.6238C140.623 46.9407 140.417 47.226 140.161 47.4629C139.905 47.6999 139.605 47.8839 139.277 48.0042C138.949 48.1245 138.601 48.1787 138.252 48.1637C137.45 48.0955 136.672 47.8606 135.968 47.4741C135.263 47.0876 134.648 46.558 134.162 45.9198C131.582 43.1374 127.098 44.7979 127.402 48.6349C127.684 52.0007 132.044 56.2303 137.733 56.4098Z" fill="#E10000"/>
<path d="M73.6947 54.2334C73.9578 54.5983 74.2937 54.9053 74.6815 55.135C75.0692 55.3647 75.5003 55.5123 75.948 55.5685H91.2817V47.9618H80.6236V42.1615H89.941V34.7567H80.6236V29.1471H91.2817V21.5292H75.948C75.5014 21.5847 75.0711 21.7308 74.6835 21.9585C74.2959 22.1862 73.9594 22.4907 73.6947 22.8531C73.0338 23.7041 72.702 24.7632 72.7596 25.8374V51.2603C72.7047 52.3307 73.0364 53.3854 73.6947 54.2334Z" fill="#E10000"/>
<path d="M19.6038 23.874C19.3891 23.1819 18.9614 22.5745 18.3812 22.1376C17.8009 21.7007 17.0975 21.4565 16.3703 21.4394C15.6529 21.468 14.962 21.7175 14.3929 22.1536C13.8239 22.5896 13.4047 23.1907 13.1931 23.874C13.1931 23.874 0.574594 54.166 0 55.6357H8.21332L10.5793 50.0934H22.2064L24.5723 55.6357H32.7857C32.2449 54.166 19.6038 23.874 19.6038 23.874ZM13.3847 42.4755L16.4041 34.8352L19.4348 42.4755H13.3847Z" fill="#E10000"/>
<path d="M97.6925 55.6363H105.579V39.3571C105.579 39.3571 110.807 47.4014 114.716 53.7963C115.174 54.7029 115.927 55.4283 116.851 55.8541C117.776 56.28 118.819 56.3812 119.809 56.1412C122.062 55.7036 122.456 53.8412 122.456 52.0125V21.44H114.57V38.9308L104.802 23.0892C104.358 22.2299 103.611 21.5643 102.704 21.2205C101.797 20.8767 100.795 20.879 99.8895 21.2268C97.5685 21.8551 97.7826 24.5926 97.7826 24.5926L97.6925 55.6363Z" fill="#E10000"/>
<path d="M30.7578 29.4052C31.3438 29.6701 31.9856 29.7894 32.6281 29.753H36.6615V55.6246H44.2551V29.7305H54.395V55.6246H62V29.753H66.0334C66.6795 29.7895 67.325 29.6702 67.9149 29.4052C68.6797 29.1112 69.3374 28.594 69.8018 27.9213C70.2662 27.2486 70.5157 26.4518 70.5175 25.6355C70.5175 24.5643 70.0901 23.537 69.3295 22.7795C68.5689 22.0221 67.5372 21.5966 66.4615 21.5966H32.2337C31.158 21.5966 30.1264 22.0221 29.3657 22.7795C28.6051 23.537 28.1778 24.5643 28.1778 25.6355C28.1778 26.4492 28.4239 27.2441 28.8841 27.9165C29.3443 28.5889 29.9972 29.1077 30.7578 29.4052Z" fill="#E10000"/>
<path d="M240 60.0115C240.015 58.963 239.612 57.9514 238.879 57.1984C238.146 56.4455 237.143 56.0127 236.09 55.995C235.386 55.9931 234.695 56.1874 234.096 56.556C209.869 70.2817 183.303 79.4331 155.737 83.5496C134.268 86.6339 112.447 86.3765 91.0562 82.7866C54.4061 76.6497 30.9942 62.7378 30.7576 62.5919L26.6116 69.4133C27.603 70.0079 51.3078 84.1442 89.3775 90.5728C101.43 92.6158 113.633 93.6441 125.859 93.6469C136.158 93.6528 146.444 92.9254 156.639 91.4704C185.208 87.2392 212.744 77.7832 237.859 63.5792L238.017 63.5007L238.163 63.4222C238.732 63.0522 239.198 62.546 239.519 61.9501C239.84 61.3542 240.005 60.6876 240 60.0115Z" fill="#E10000"/>
<path d="M11.4133 0.202282H12.416C12.5159 0.203491 12.6128 0.236965 12.692 0.297654C12.7713 0.358343 12.8286 0.442974 12.8554 0.538864L15.1087 9.76111L17.024 0.493995C17.045 0.407063 17.096 0.330221 17.168 0.276905C17.2401 0.22359 17.3287 0.197178 17.4183 0.202282H18.6802C18.7386 0.202651 18.7961 0.215937 18.8488 0.24116C18.9014 0.266383 18.9477 0.302918 18.9844 0.348138C19.0683 0.431675 19.1167 0.544159 19.1196 0.662277L16.5846 11.8816C16.5409 11.9876 16.4657 12.0778 16.369 12.14C16.2723 12.2021 16.1588 12.2333 16.0438 12.2293H14.0609C13.9459 12.2333 13.8324 12.2021 13.7357 12.14C13.639 12.0778 13.5638 11.9876 13.5201 11.8816L11.9653 5.6212L10.3993 11.8816C10.3556 11.9876 10.2804 12.0778 10.1837 12.14C10.087 12.2021 9.97351 12.2333 9.85848 12.2293H7.88684C7.77149 12.235 7.65727 12.2045 7.56026 12.1421C7.46325 12.0797 7.38832 11.9886 7.34604 11.8816L4.7998 0.662277C4.80268 0.544159 4.85109 0.431675 4.935 0.348138C4.9717 0.302918 5.01803 0.266383 5.07064 0.24116C5.12324 0.215937 5.18081 0.202651 5.2392 0.202282H6.43345C6.52262 0.199308 6.61017 0.226541 6.6818 0.279524C6.75342 0.332508 6.80489 0.408119 6.82779 0.493995L8.7431 9.76111L10.9964 0.538864C11.0193 0.442935 11.074 0.357512 11.1517 0.296421C11.2294 0.23533 11.3255 0.202149 11.4245 0.202282H11.4133ZM22.9727 7.29287H26.9273C26.982 7.29302 27.0361 7.28215 27.0864 7.26095C27.1368 7.23974 27.1823 7.20863 27.2202 7.16946C27.2584 7.13549 27.2891 7.09404 27.3104 7.04771C27.3317 7.00138 27.3432 6.95115 27.3442 6.90019V5.77826C27.3465 5.72354 27.3365 5.669 27.3151 5.61856C27.2937 5.56812 27.2613 5.52304 27.2202 5.48657C27.1836 5.4457 27.1383 5.41343 27.0877 5.39209C27.037 5.37075 26.9823 5.36087 26.9273 5.36316H22.9727V2.08713H27.3892C27.4992 2.08498 27.6041 2.04079 27.6822 1.96372C27.7198 1.92933 27.7502 1.8878 27.7714 1.84155C27.7927 1.79531 27.8045 1.74529 27.8061 1.69445V0.572521C27.8039 0.463047 27.7596 0.358604 27.6822 0.280826C27.6041 0.203756 27.4992 0.159565 27.3892 0.157413H21.3504C21.2438 0.160109 21.1427 0.204442 21.0687 0.280826C21.0268 0.317207 20.9931 0.362012 20.9698 0.412284C20.9465 0.462557 20.9341 0.517155 20.9335 0.572521V11.7918C20.9343 11.8455 20.9467 11.8984 20.9701 11.9469C20.9934 11.9953 21.0271 12.0381 21.0687 12.0723C21.1036 12.1123 21.1469 12.1441 21.1956 12.1654C21.2443 12.1868 21.2972 12.1971 21.3504 12.1957H27.3892C27.4441 12.1972 27.4986 12.187 27.5492 12.1657C27.5997 12.1444 27.6451 12.1125 27.6822 12.0723C27.7589 11.9986 27.8034 11.8979 27.8061 11.7918V10.6699C27.8045 10.619 27.7927 10.569 27.7714 10.5228C27.7502 10.4765 27.7198 10.435 27.6822 10.4006C27.6451 10.3604 27.5997 10.3285 27.5492 10.3072C27.4986 10.2859 27.4441 10.2757 27.3892 10.2772H22.9727V7.29287ZM37.3601 12.0162C37.3882 12.072 37.4318 12.1186 37.4857 12.1505C37.5397 12.1823 37.6017 12.198 37.6643 12.1957H39.005C39.059 12.1949 39.1121 12.1825 39.1608 12.1593C39.2094 12.136 39.2524 12.1025 39.2867 12.0611C39.3286 12.0247 39.3623 11.9799 39.3856 11.9296C39.4089 11.8793 39.4213 11.8247 39.4219 11.7694V0.639833C39.4215 0.582801 39.4093 0.526477 39.386 0.474359C39.3627 0.422241 39.3289 0.37546 39.2867 0.336925C39.2139 0.257384 39.1129 0.209102 39.005 0.202282H37.7995C37.7458 0.204432 37.6932 0.217495 37.6447 0.240647C37.5963 0.263798 37.5531 0.296561 37.5179 0.336925C37.4756 0.37546 37.4418 0.422241 37.4186 0.474359C37.3953 0.526477 37.3831 0.582801 37.3827 0.639833V8.24652L32.324 0.393025C32.2945 0.335072 32.2494 0.286476 32.1936 0.252767C32.1379 0.219058 32.0737 0.201569 32.0085 0.202282H30.634C30.5261 0.209102 30.4251 0.257384 30.3523 0.336925C30.3101 0.37546 30.2763 0.422241 30.253 0.474359C30.2298 0.526477 30.2176 0.582801 30.2171 0.639833V11.7694C30.2177 11.8247 30.2301 11.8793 30.2534 11.9296C30.2767 11.9799 30.3104 12.0247 30.3523 12.0611C30.3867 12.1025 30.4296 12.136 30.4783 12.1593C30.5269 12.1825 30.5801 12.1949 30.634 12.1957H31.8395C31.8937 12.1966 31.9474 12.1849 31.9963 12.1615C32.0452 12.1381 32.088 12.1037 32.1212 12.0611C32.1631 12.0247 32.1968 11.9799 32.2201 11.9296C32.2434 11.8793 32.2558 11.8247 32.2564 11.7694V4.11782L37.3601 11.9713V12.0162ZM49.3027 11.9713C49.3315 12.029 49.3769 12.0768 49.433 12.1088C49.4892 12.1407 49.5536 12.1554 49.6181 12.1508H50.9476C51.0015 12.1501 51.0547 12.1376 51.1033 12.1144C51.1519 12.0911 51.1949 12.0576 51.2293 12.0162C51.2712 11.9798 51.3049 11.935 51.3282 11.8847C51.3515 11.8345 51.3638 11.7799 51.3644 11.7245V0.594964C51.364 0.537932 51.3518 0.481607 51.3285 0.429489C51.3053 0.377371 51.2715 0.330573 51.2293 0.292039C51.1564 0.212498 51.0555 0.164232 50.9476 0.157413H49.7421C49.6884 0.159563 49.6357 0.172609 49.5873 0.19576C49.5388 0.218911 49.4957 0.251674 49.4604 0.292039C49.4182 0.330573 49.3844 0.377371 49.3611 0.429489C49.3379 0.481607 49.3256 0.537932 49.3252 0.594964V8.20163L44.2665 0.348138C44.2371 0.290185 44.1919 0.241606 44.1362 0.207897C44.0804 0.174189 44.0163 0.1567 43.9511 0.157413H42.5765C42.4687 0.164232 42.3677 0.212498 42.2949 0.292039C42.2527 0.330573 42.2189 0.377371 42.1956 0.429489C42.1723 0.481607 42.1601 0.537932 42.1597 0.594964V11.7245C42.1603 11.7799 42.1726 11.8345 42.1959 11.8847C42.2192 11.935 42.253 11.9798 42.2949 12.0162C42.3292 12.0576 42.3722 12.0911 42.4208 12.1144C42.4695 12.1376 42.5226 12.1501 42.5765 12.1508H43.7821C43.8363 12.1517 43.89 12.14 43.9389 12.1166C43.9877 12.0933 44.0305 12.0589 44.0637 12.0162C44.1056 11.9798 44.1394 11.935 44.1627 11.8847C44.186 11.8345 44.1983 11.7799 44.1989 11.7245V4.07295L49.3027 11.9264V11.9713ZM55.7471 0.336925C55.7473 0.282497 55.7364 0.228597 55.7151 0.178469C55.6938 0.128342 55.6625 0.0830108 55.6232 0.0452132C55.582 0.000297937 55.5313 -0.0350416 55.4749 -0.058307C55.4184 -0.0815724 55.3575 -0.0921893 55.2965 -0.0894127H54.0459C53.9612 -0.0994971 53.8759 -0.0773575 53.8069 -0.0274239C53.738 0.0225098 53.6905 0.0965546 53.6741 0.179856L52.8854 2.70419C52.8854 3.00711 53.0319 3.16417 53.3136 3.16417H54.3163C54.3966 3.16145 54.4745 3.13564 54.5405 3.08986C54.6064 3.04407 54.6577 2.98027 54.6881 2.90613L55.7471 0.336925V0.336925ZM64.5801 1.45885C64.145 0.942509 63.5939 0.535342 62.9715 0.27028C62.3491 0.00521816 61.6729 -0.110304 60.9973 -0.0669693C60.4288 -0.077183 59.8622 0.0023274 59.3186 0.168626C58.9091 0.284192 58.5264 0.478597 58.192 0.74082C57.9321 0.962391 57.7244 1.23817 57.5836 1.54861C57.4463 1.81382 57.3477 2.09714 57.2907 2.39006C57.2438 2.64542 57.2212 2.90459 57.2231 3.16417C57.2002 3.90259 57.4219 4.62802 57.854 5.22853C58.2435 5.76116 58.7632 6.18594 59.3637 6.46264C59.9496 6.7319 60.4904 6.97873 61.1213 7.18067C61.6486 7.36228 62.1518 7.60718 62.6197 7.90994C62.8025 8.00974 62.9559 8.15545 63.0646 8.3326C63.1733 8.50974 63.2336 8.71214 63.2394 8.91967C63.2394 9.94062 62.5972 10.4567 61.3015 10.4567C60.8048 10.4663 60.3119 10.3668 59.8582 10.1651C59.4045 9.9634 59.001 9.66458 58.6764 9.2899C58.6423 9.25191 58.6007 9.22133 58.5542 9.2001C58.5076 9.17886 58.4572 9.16742 58.406 9.16649C58.2824 9.16706 58.1628 9.21072 58.068 9.2899L57.347 9.87331C57.2798 9.91704 57.225 9.97705 57.1875 10.0477C57.1501 10.1184 57.1313 10.1973 57.1329 10.2772C57.1337 10.3829 57.1693 10.4853 57.2343 10.5689C57.6863 11.1854 58.2888 11.6769 58.9847 11.9969C59.6806 12.3169 60.447 12.4548 61.2114 12.3976C61.926 12.4182 62.6377 12.3001 63.307 12.0499C63.8043 11.8811 64.2423 11.5734 64.5688 11.1635C64.8046 10.8454 64.9907 10.4936 65.1209 10.1201C65.2325 9.79121 65.2896 9.44638 65.2899 9.09918C65.3074 8.48524 65.1512 7.87877 64.8392 7.34897C64.5784 6.87595 64.1876 6.48677 63.7126 6.22705C63.2619 5.99144 62.7775 5.77826 62.2479 5.5651C61.7184 5.35193 61.2339 5.18366 60.7945 5.03781C60.3735 4.90491 59.9883 4.67856 59.6679 4.37585C59.5192 4.23035 59.4032 4.05514 59.3275 3.86176C59.2518 3.66839 59.218 3.46123 59.2285 3.25393C59.2238 3.05933 59.2583 2.86578 59.3299 2.68466C59.4014 2.50354 59.5087 2.3385 59.6454 2.19931C59.9525 1.92046 60.3566 1.77159 60.772 1.7842C61.5974 1.74194 62.4065 2.02393 63.0253 2.56955C63.0612 2.62265 63.11 2.6659 63.1671 2.69531C63.2242 2.72472 63.2878 2.73935 63.3521 2.73785C63.4671 2.72075 63.5757 2.67436 63.6675 2.60321L64.535 1.98616C64.6252 1.98616 64.659 1.82909 64.659 1.67202C64.6389 1.57186 64.5922 1.47888 64.5238 1.40275L64.5801 1.45885ZM73.2328 7.16946H77.1874C77.242 7.16961 77.2962 7.15874 77.3465 7.13753C77.3968 7.11633 77.4423 7.08521 77.4803 7.04605C77.5185 7.01208 77.5492 6.97063 77.5705 6.9243C77.5918 6.87796 77.6033 6.82774 77.6042 6.77678V5.65485C77.6065 5.60013 77.5966 5.54559 77.5752 5.49515C77.5537 5.4447 77.5213 5.39962 77.4803 5.36316C77.4437 5.32229 77.3984 5.29002 77.3478 5.26868C77.2971 5.24733 77.2423 5.23746 77.1874 5.23974H73.2328V1.96372H77.6493C77.7592 1.96156 77.8641 1.91737 77.9422 1.8403C77.9799 1.80592 78.0102 1.76438 78.0315 1.71814C78.0528 1.6719 78.0646 1.62188 78.0662 1.57104V0.449108C78.064 0.339634 78.0196 0.235191 77.9422 0.157413C77.8641 0.0803429 77.7592 0.0361522 77.6493 0.034H71.6104C71.5039 0.0366967 71.4027 0.0810289 71.3288 0.157413C71.2869 0.193795 71.2531 0.238599 71.2298 0.288872C71.2065 0.339144 71.1942 0.393742 71.1936 0.449108V11.6684C71.1943 11.7221 71.2068 11.775 71.2302 11.8235C71.2535 11.8719 71.2871 11.9147 71.3288 11.9489C71.3637 11.9889 71.407 12.0207 71.4557 12.042C71.5044 12.0633 71.5572 12.0737 71.6104 12.0723H77.6493C77.7042 12.0738 77.7587 12.0636 77.8092 12.0423C77.8598 12.021 77.9051 11.9891 77.9422 11.9489C78.0189 11.8752 78.0635 11.7745 78.0662 11.6684V10.5465C78.0646 10.4956 78.0528 10.4456 78.0315 10.3994C78.0102 10.3531 77.9799 10.3116 77.9422 10.2772C77.9051 10.2369 77.8598 10.2051 77.8092 10.1838C77.7587 10.1625 77.7042 10.1523 77.6493 10.1538H73.2328V7.16946ZM82.5165 0.516421C82.516 0.459389 82.5038 0.403064 82.4805 0.350946C82.4573 0.298828 82.4235 0.252047 82.3813 0.213513C82.346 0.173148 82.3028 0.140385 82.2544 0.117234C82.206 0.0940825 82.1533 0.0810195 82.0996 0.0788696H80.8941C80.8404 0.0810195 80.7877 0.0940825 80.7393 0.117234C80.6908 0.140385 80.6477 0.173148 80.6124 0.213513C80.5702 0.252047 80.5364 0.298828 80.5131 0.350946C80.4899 0.403064 80.4776 0.459389 80.4772 0.516421V11.646C80.4778 11.7013 80.4902 11.7559 80.5135 11.8062C80.5368 11.8565 80.5705 11.9013 80.6124 11.9377C80.6477 11.978 80.6908 12.0108 80.7393 12.0339C80.7877 12.0571 80.8404 12.0701 80.8941 12.0723H82.0996C82.1533 12.0701 82.206 12.0571 82.2544 12.0339C82.3028 12.0108 82.346 11.978 82.3813 11.9377C82.4232 11.9013 82.4569 11.8565 82.4802 11.8062C82.5035 11.7559 82.5158 11.7013 82.5165 11.646V0.516421ZM92.3972 11.8928C92.4282 11.9486 92.474 11.9949 92.5297 12.0266C92.5853 12.0582 92.6486 12.0741 92.7127 12.0723H94.0421C94.0963 12.0732 94.15 12.0614 94.1989 12.0381C94.2478 12.0147 94.2906 11.9803 94.3238 11.9377C94.3657 11.9013 94.3994 11.8565 94.4227 11.8062C94.446 11.7559 94.4584 11.7013 94.459 11.646V0.516421C94.4586 0.459389 94.4463 0.403064 94.4231 0.350946C94.3998 0.298828 94.366 0.252047 94.3238 0.213513C94.2885 0.173148 94.2454 0.140385 94.1969 0.117234C94.1485 0.0940825 94.0958 0.0810195 94.0421 0.0788696H92.8366C92.7288 0.0856889 92.6278 0.133972 92.555 0.213513C92.5127 0.252047 92.4789 0.298828 92.4557 0.350946C92.4324 0.403064 92.4202 0.459389 92.4197 0.516421V8.12311L87.3723 0.269612C87.3419 0.212468 87.2965 0.164571 87.241 0.130998C87.1854 0.097425 87.1218 0.0794097 87.0569 0.0788696H85.6823C85.6287 0.0810195 85.576 0.0940825 85.5276 0.117234C85.4791 0.140385 85.4359 0.173148 85.4007 0.213513C85.3585 0.252047 85.3247 0.298828 85.3014 0.350946C85.2781 0.403064 85.2659 0.459389 85.2655 0.516421V11.646C85.2661 11.7013 85.2785 11.7559 85.3018 11.8062C85.3251 11.8565 85.3588 11.9013 85.4007 11.9377C85.4339 11.9803 85.4767 12.0147 85.5256 12.0381C85.5745 12.0614 85.6281 12.0732 85.6823 12.0723H86.8879C86.9421 12.0732 86.9958 12.0614 87.0447 12.0381C87.0936 12.0147 87.1363 11.9803 87.1695 11.9377C87.2115 11.9013 87.2452 11.8565 87.2685 11.8062C87.2918 11.7559 87.3041 11.7013 87.3047 11.646V3.9944L92.3972 11.8479V11.8928ZM99.2473 7.12459H103.202C103.256 7.12474 103.311 7.11387 103.361 7.09266C103.411 7.07146 103.457 7.04034 103.495 7.00118C103.568 6.92965 103.612 6.83379 103.619 6.73191V5.60998C103.619 5.55555 103.608 5.50165 103.587 5.45153C103.565 5.4014 103.534 5.35609 103.495 5.31829C103.458 5.27742 103.413 5.24515 103.362 5.22381C103.312 5.20247 103.257 5.19259 103.202 5.19487H99.2473V1.91883H103.664C103.774 1.91668 103.879 1.8725 103.957 1.79543C103.994 1.76105 104.025 1.7195 104.046 1.67325C104.067 1.62701 104.079 1.57701 104.081 1.52617V0.404238C104.078 0.294764 104.034 0.190321 103.957 0.112543C103.879 0.0354733 103.774 -0.00871739 103.664 -0.0108695H97.6925C97.5826 -0.00871739 97.4777 0.0354733 97.3996 0.112543C97.3222 0.190321 97.2778 0.294764 97.2756 0.404238V11.6235C97.2783 11.7296 97.3229 11.8303 97.3996 11.904C97.4367 11.9443 97.482 11.9761 97.5326 11.9974C97.5831 12.0187 97.6376 12.0289 97.6925 12.0274H103.731C103.786 12.0289 103.841 12.0187 103.891 11.9974C103.942 11.9761 103.987 11.9443 104.024 11.904C104.101 11.8303 104.146 11.7296 104.148 11.6235V10.5016C104.147 10.4507 104.135 10.4007 104.114 10.3545C104.092 10.3082 104.062 10.2667 104.024 10.2323C103.987 10.1921 103.942 10.1602 103.891 10.1389C103.841 10.1176 103.786 10.1074 103.731 10.1089H99.3149L99.2473 7.12459ZM112.767 7.84262C113.386 7.47848 113.893 6.95229 114.233 6.32129C114.572 5.69028 114.732 4.97861 114.694 4.26367C114.714 3.55656 114.559 2.85538 114.243 2.22176C114.005 1.72876 113.658 1.29548 113.229 0.953989C112.842 0.676301 112.412 0.464013 111.956 0.325695C111.626 0.211412 111.287 0.125095 110.942 0.0676565H110.491H106.897C106.85 0.0935869 106.809 0.128862 106.776 0.171314C106.743 0.213765 106.719 0.262494 106.706 0.314482C106.664 0.353017 106.63 0.399797 106.606 0.451915C106.583 0.504033 106.571 0.560375 106.571 0.617407V11.7469C106.571 11.804 106.583 11.8603 106.606 11.9124C106.63 11.9645 106.664 12.0113 106.706 12.0499C106.741 12.0902 106.784 12.123 106.833 12.1461C106.881 12.1693 106.934 12.1823 106.987 12.1845H108.193C108.247 12.1823 108.299 12.1693 108.348 12.1461C108.396 12.123 108.439 12.0902 108.475 12.0499C108.517 12.0113 108.551 11.9645 108.574 11.9124C108.597 11.8603 108.609 11.804 108.61 11.7469V8.61674H110.863L112.7 12.0386C112.734 12.0891 112.781 12.1294 112.837 12.1551C112.893 12.1807 112.954 12.1909 113.015 12.1845H114.423C114.48 12.1918 114.537 12.1862 114.591 12.1679C114.645 12.1496 114.694 12.1193 114.734 12.0792C114.775 12.039 114.805 11.9902 114.824 11.9365C114.842 11.8828 114.848 11.8256 114.84 11.7694L112.869 7.98846L112.767 7.84262ZM110.469 2.08713C110.78 2.05077 111.096 2.08652 111.392 2.19161C111.687 2.2967 111.955 2.46829 112.173 2.69301C112.391 2.91774 112.554 3.18954 112.649 3.48726C112.744 3.78498 112.769 4.10059 112.722 4.40951C112.768 4.71716 112.742 5.03117 112.645 5.32705C112.549 5.62293 112.386 5.89268 112.168 6.11529C111.949 6.3379 111.683 6.50735 111.388 6.61041C111.093 6.71348 110.779 6.74737 110.469 6.70947H108.621V2.08713H110.469ZM129.092 0.639833C129.089 0.521716 129.041 0.409232 128.957 0.325695C128.92 0.280474 128.874 0.24394 128.822 0.218717C128.769 0.193494 128.711 0.180225 128.653 0.179856H126.929C126.869 0.178532 126.809 0.190984 126.754 0.216269C126.7 0.241553 126.652 0.278985 126.614 0.325695L122.772 5.29584V0.617407C122.771 0.560375 122.759 0.504033 122.736 0.451915C122.713 0.399797 122.679 0.353017 122.637 0.314482C122.564 0.234941 122.463 0.186675 122.355 0.179856H121.127C121.073 0.182006 121.021 0.195052 120.972 0.218203C120.924 0.241355 120.881 0.274117 120.845 0.314482C120.803 0.353017 120.769 0.399797 120.746 0.451915C120.723 0.504033 120.71 0.560375 120.71 0.617407V11.7469C120.71 11.804 120.723 11.8603 120.746 11.9124C120.769 11.9645 120.803 12.0113 120.845 12.0499C120.881 12.0902 120.924 12.123 120.972 12.1461C121.021 12.1693 121.073 12.1823 121.127 12.1845H122.31C122.418 12.1777 122.519 12.1294 122.592 12.0499C122.634 12.0113 122.668 11.9645 122.691 11.9124C122.714 11.8603 122.726 11.804 122.727 11.7469V6.91142L127.053 12.0386C127.092 12.0841 127.14 12.1207 127.195 12.1459C127.249 12.171 127.309 12.1842 127.369 12.1845H129.16C129.273 12.1764 129.379 12.124 129.453 12.0386C129.537 11.9551 129.585 11.8426 129.588 11.7245L124.822 6.11485L129.092 0.639833ZM134.151 0.179856C134.042 0.167663 133.932 0.191888 133.838 0.248744C133.744 0.3056 133.672 0.391867 133.633 0.493995L130.151 11.7133C130.154 11.8314 130.203 11.9439 130.287 12.0274C130.325 12.0705 130.372 12.1056 130.424 12.1306C130.476 12.1556 130.533 12.1701 130.591 12.1733H131.909C131.998 12.1762 132.086 12.149 132.157 12.096C132.229 12.043 132.28 11.9674 132.303 11.8816L132.867 10.0304H137.565L138.128 11.8816C138.151 11.9674 138.202 12.043 138.274 12.096C138.346 12.149 138.433 12.1762 138.522 12.1733H139.829C139.887 12.1701 139.944 12.1556 139.996 12.1306C140.048 12.1056 140.095 12.0705 140.134 12.0274C140.217 11.9439 140.266 11.8314 140.269 11.7133L136.799 0.493995C136.757 0.39097 136.683 0.304362 136.587 0.24758C136.492 0.190798 136.38 0.167005 136.269 0.179856H134.151V0.179856ZM136.979 8.15676H133.419L135.21 2.3564L136.979 8.15676ZM148.888 11.9938C148.916 12.0496 148.959 12.0962 149.013 12.128C149.067 12.1598 149.129 12.1756 149.192 12.1733H150.533C150.587 12.1725 150.64 12.1601 150.688 12.1368C150.737 12.1136 150.78 12.0801 150.814 12.0386C150.856 12.0022 150.89 11.9575 150.913 11.9072C150.937 11.8569 150.949 11.8023 150.949 11.7469V0.617407C150.944 0.556845 150.924 0.498305 150.893 0.445958C150.862 0.393611 150.82 0.348732 150.769 0.314482C150.696 0.234941 150.595 0.186675 150.488 0.179856H149.282C149.228 0.182006 149.176 0.195052 149.127 0.218203C149.079 0.241355 149.036 0.274117 149 0.314482C148.958 0.353017 148.924 0.399797 148.901 0.451915C148.878 0.504033 148.866 0.560375 148.865 0.617407V8.22408L143.806 0.370582C143.777 0.312629 143.732 0.26405 143.676 0.230341C143.62 0.196632 143.556 0.179143 143.491 0.179856H142.116C142.009 0.186675 141.908 0.234941 141.835 0.314482C141.793 0.353017 141.759 0.399797 141.736 0.451915C141.712 0.504033 141.7 0.560375 141.7 0.617407V11.7469C141.7 11.8023 141.713 11.8569 141.736 11.9072C141.759 11.9575 141.793 12.0022 141.835 12.0386C141.869 12.0801 141.912 12.1136 141.961 12.1368C142.009 12.1601 142.063 12.1725 142.116 12.1733H143.322C143.376 12.1741 143.43 12.1624 143.479 12.1391C143.528 12.1157 143.57 12.0813 143.604 12.0386C143.646 12.0022 143.679 11.9575 143.703 11.9072C143.726 11.8569 143.738 11.8023 143.739 11.7469V4.09537L148.843 11.9489L148.888 11.9938ZM160.785 11.9489C160.814 12.0065 160.859 12.0544 160.916 12.0863C160.972 12.1183 161.036 12.1329 161.101 12.1284H162.43C162.484 12.1276 162.537 12.1152 162.586 12.0919C162.634 12.0687 162.677 12.0352 162.712 11.9938C162.754 11.9574 162.787 11.9126 162.811 11.8623C162.834 11.812 162.846 11.7574 162.847 11.702V0.572521C162.847 0.515489 162.834 0.459164 162.811 0.407046C162.788 0.354928 162.754 0.308147 162.712 0.269612C162.639 0.190071 162.538 0.141789 162.43 0.134969H161.225C161.171 0.137119 161.118 0.150182 161.07 0.173334C161.021 0.196485 160.978 0.229248 160.943 0.269612C160.901 0.308147 160.867 0.354928 160.844 0.407046C160.82 0.459164 160.808 0.515489 160.808 0.572521V8.17919L155.749 0.325695C155.721 0.266876 155.676 0.217536 155.62 0.183674C155.564 0.149812 155.499 0.132891 155.434 0.134969H154.025C153.917 0.141789 153.816 0.190071 153.744 0.269612C153.701 0.308147 153.668 0.354928 153.644 0.407046C153.621 0.459164 153.609 0.515489 153.608 0.572521V11.702C153.609 11.7574 153.621 11.812 153.645 11.8623C153.668 11.9126 153.702 11.9574 153.744 11.9938C153.778 12.0352 153.821 12.0687 153.87 12.0919C153.918 12.1152 153.971 12.1276 154.025 12.1284H155.276C155.328 12.1275 155.38 12.115 155.426 12.0917C155.473 12.0684 155.514 12.0349 155.546 11.9938C155.588 11.9574 155.622 11.9126 155.645 11.8623C155.668 11.812 155.681 11.7574 155.681 11.702V4.0505L160.785 11.904V11.9489ZM167.692 10.4567C167.699 10.403 167.693 10.3483 167.676 10.2969C167.659 10.2455 167.631 10.1985 167.593 10.1597C167.555 10.1208 167.508 10.091 167.457 10.0725C167.406 10.054 167.351 10.0473 167.297 10.0528H165.99C165.907 10.0502 165.826 10.0737 165.757 10.1201C165.688 10.1664 165.636 10.2332 165.607 10.3109L164.368 13.3289C164.368 13.6093 164.492 13.744 164.74 13.744H165.866C165.939 13.7403 166.01 13.7176 166.071 13.6782C166.132 13.6388 166.182 13.5841 166.216 13.5196L167.737 10.4567H167.692ZM176.333 12.0947C177.128 12.1232 177.921 11.9863 178.66 11.6927C179.399 11.3991 180.068 10.9552 180.626 10.3894C181.675 9.25541 182.237 7.75733 182.192 6.21582C182.216 5.4242 182.083 4.6356 181.798 3.89595C181.514 3.1563 181.085 2.48039 180.535 1.90762C179.978 1.34183 179.309 0.897957 178.57 0.604328C177.831 0.310699 177.038 0.17376 176.243 0.202282H173.178C173.071 0.209102 172.97 0.257384 172.897 0.336925C172.854 0.37546 172.821 0.422241 172.797 0.474359C172.774 0.526477 172.762 0.582801 172.762 0.639833V11.7694C172.762 11.8264 172.774 11.8827 172.797 11.9348C172.821 11.987 172.854 12.0337 172.897 12.0723C172.97 12.1518 173.071 12.2001 173.178 12.2069H176.243L176.333 12.0947ZM176.367 2.10957C176.883 2.0836 177.399 2.17058 177.878 2.36441C178.356 2.55824 178.787 2.85422 179.138 3.2315C179.84 4.05568 180.202 5.11396 180.152 6.19339C180.201 7.26917 179.838 8.32331 179.138 9.14405C178.785 9.5195 178.355 9.81424 177.876 10.0079C177.398 10.2016 176.883 10.2897 176.367 10.266H174.846V2.07592H176.412L176.367 2.10957ZM186.552 0.168626C186.443 0.156433 186.333 0.180675 186.239 0.237531C186.145 0.294387 186.073 0.380637 186.034 0.482764L182.563 11.702C182.566 11.8202 182.615 11.9326 182.699 12.0162C182.773 12.1015 182.878 12.154 182.992 12.162H184.31C184.399 12.165 184.486 12.1378 184.558 12.0848C184.63 12.0318 184.681 11.9562 184.704 11.8703L185.267 10.0191H189.966L190.529 11.8703C190.552 11.9562 190.603 12.0318 190.675 12.0848C190.746 12.1378 190.834 12.165 190.923 12.162H192.241C192.355 12.154 192.46 12.1015 192.534 12.0162C192.618 11.9326 192.667 11.8202 192.67 11.702L189.199 0.482764C189.159 0.381753 189.086 0.296592 188.993 0.239979C188.899 0.183366 188.79 0.158335 188.681 0.168626H186.563H186.552ZM189.391 8.16798H185.842L187.622 2.36761L189.391 8.16798ZM201.277 12.005C201.306 12.0626 201.351 12.1105 201.408 12.1424C201.464 12.1744 201.528 12.189 201.593 12.1845H202.922C202.976 12.1854 203.03 12.1736 203.079 12.1503C203.128 12.1269 203.171 12.0925 203.204 12.0499C203.246 12.0135 203.279 11.9687 203.303 11.9184C203.326 11.8681 203.338 11.8135 203.339 11.7581V0.62862C203.338 0.571588 203.326 0.515264 203.303 0.463146C203.28 0.411028 203.246 0.36423 203.204 0.325695C203.168 0.285331 203.125 0.252568 203.077 0.229416C203.028 0.206265 202.976 0.193219 202.922 0.191069H201.717C201.663 0.193219 201.61 0.206265 201.562 0.229416C201.513 0.252568 201.47 0.285331 201.435 0.325695C201.393 0.36423 201.359 0.411028 201.336 0.463146C201.312 0.515264 201.3 0.571588 201.3 0.62862V8.23529L196.241 0.381795C196.213 0.322976 196.168 0.273635 196.112 0.239774C196.056 0.205912 195.991 0.188991 195.926 0.191069H194.585C194.533 0.194695 194.483 0.208454 194.436 0.231556C194.39 0.254659 194.348 0.286646 194.314 0.325695C194.272 0.36423 194.238 0.411028 194.215 0.463146C194.192 0.515264 194.18 0.571588 194.179 0.62862V11.7581C194.18 11.8135 194.192 11.8681 194.215 11.9184C194.239 11.9687 194.272 12.0135 194.314 12.0499C194.346 12.091 194.387 12.1245 194.434 12.1478C194.481 12.1711 194.532 12.1836 194.585 12.1845H195.802C195.856 12.1837 195.909 12.1713 195.957 12.148C196.006 12.1248 196.049 12.0913 196.083 12.0499C196.125 12.0135 196.159 11.9687 196.182 11.9184C196.205 11.8681 196.218 11.8135 196.218 11.7581V4.1066L201.311 11.9601L201.277 12.005ZM213.253 11.9601C213.283 12.0168 213.329 12.0638 213.385 12.0956C213.441 12.1274 213.505 12.1427 213.569 12.1396H214.865C214.919 12.1405 214.973 12.1288 215.021 12.1054C215.07 12.082 215.113 12.0476 215.146 12.005C215.188 11.9686 215.222 11.9238 215.245 11.8735C215.269 11.8233 215.281 11.7686 215.281 11.7133V0.583751C215.281 0.526719 215.269 0.470377 215.246 0.418259C215.222 0.366141 215.188 0.31936 215.146 0.280826C215.111 0.240461 215.068 0.207698 215.019 0.184547C214.971 0.161395 214.918 0.14835 214.865 0.1462H213.659C213.605 0.14835 213.553 0.161395 213.504 0.184547C213.456 0.207698 213.413 0.240461 213.377 0.280826C213.335 0.31936 213.301 0.366141 213.278 0.418259C213.255 0.470377 213.243 0.526719 213.242 0.583751V8.19042L208.184 0.336925C208.157 0.278998 208.114 0.230053 208.06 0.196154C208.006 0.162254 207.943 0.144891 207.879 0.1462H206.505C206.451 0.14835 206.398 0.161395 206.35 0.184547C206.302 0.207698 206.258 0.240461 206.223 0.280826C206.181 0.31936 206.147 0.366141 206.124 0.418259C206.101 0.470377 206.088 0.526719 206.088 0.583751V11.7133C206.089 11.7686 206.101 11.8233 206.124 11.8735C206.148 11.9238 206.181 11.9686 206.223 12.005C206.256 12.0476 206.299 12.082 206.348 12.1054C206.397 12.1288 206.451 12.1405 206.505 12.1396H207.71C207.764 12.1388 207.817 12.1264 207.866 12.1032C207.915 12.0799 207.958 12.0464 207.992 12.005C208.034 11.9686 208.068 11.9238 208.091 11.8735C208.114 11.8233 208.127 11.7686 208.127 11.7133V4.06172L213.22 11.9152" fill="black"/>
</g>
<defs>
<clipPath id="clip0_1778_10245">
<rect width="240" height="93.6585" fill="white"/>
</clipPath>
</defs>
</svg>
